# xmcd CD database file
#
# Track frame offsets:
#	150
#	29941
#	52453
#	78237
#	96987
#	116188
#	139051
#
# Disc length: 2130 seconds
#
# Revision: 0
# Processed by: cddbd v1.5.1PL0 Copyright (c) Steve Scherf et al.
# Submitted via: CDex 1.51
#
DISCID=6b085007
DTITLE=Adrienne Morgan Hammond - Part Of Me
DYEAR=2002
DGENRE=Jazz
TTITLE0=I mattered too
TTITLE1=If you
TTITLE2=Rainy Days
TTITLE3=Shouldn't I
TTITLE4=The part of me that is you
TTITLE5=For so long
TTITLE6=My Kelly song (bonus track)
EXTD=YEAR: 2002
EXTT0=
EXTT1=
EXTT2=
EXTT3=
EXTT4=
EXTT5=
EXTT6=
PLAYORDER=
